<svg id="Layer_1" data-name="Layer 1" xmlns="http://www.w3.org/2000/svg" xmlns:xlink="http://www.w3.org/1999/xlink" viewBox="0 0 300 300"><defs><style>.cls-1{fill:url(#linear-gradient);}.cls-2{fill:#fff;}</style><linearGradient id="linear-gradient" y1="150" x2="300" y2="150" gradientUnits="userSpaceOnUse"><stop offset="0" stop-color="#bb282c"/><stop offset="1" stop-color="#f05051"/></linearGradient></defs><title>logo</title><rect class="cls-1" width="300" height="300" rx="30" ry="30"/><path class="cls-2" d="M247.18,294.83a25.09,25.09,0,0,0-.06-3.94,9.9,9.9,0,0,0-1.65-3.64c-0.82-1.15-1.86-1.47-1.91-2a47.47,47.47,0,0,0-1.92-4.51L237.46,271s-3.81-10-5.64-13.09-4-3-4.67-2.87-0.87,1.37-.87,1.37a11.09,11.09,0,0,0-5.53,1.17c-2.28,1.37-2.23,2.94-2.23,2.94a10.65,10.65,0,0,0-3.71,1.62,5.35,5.35,0,0,0-1.87,2.9,5.44,5.44,0,0,0-2.28,1.27,22.19,22.19,0,0,0-2.52,3s-4.11-3.43-5.48-4.72-11.72-8.91-14.32-11-15.55-8.8-15.51-9.06-0.3-1.83-1.11-1.27-2.23-.15-2.23-0.15a14.79,14.79,0,0,0-1.12-2.39,3,3,0,0,0-1.28-1.22l-0.61-.86c-0.61-.87-1.72-3.1-2.33-4.27a57,57,0,0,0-3.66-5.23,18.71,18.71,0,0,0-5.74-5c-2.77-1.63-6.1-.1-6.29,0,0.13-.07.64-0.44,1-2.35,0.46-2.21-.15-13.48-0.45-15.15s-2-16.22-2-16.22,10,4.11,10.73,3.43,4.57-.3,4.57-0.3-3.73,7.46-4.18,9.29,1.53,2.52,1.53,2.52a43.34,43.34,0,0,0,5.78,1.52,1.16,1.16,0,0,0,1.22-.91l4.41-12.26,2.06,0.84c2.06,0.84,4.8,1.14,5.86.76s2.44-.83,2.59-1.37a1.87,1.87,0,0,1,.84-1.22c0.54-.38,1.15-1.06.46-1.59a2,2,0,0,1-.68-1.45,8.63,8.63,0,0,1,1.67-1.21c1.07-.61.54-4,0.54-4l0.76-.15a4.51,4.51,0,0,0,3.28-1.83,2.78,2.78,0,0,0-.08-3.27l1.06-1.07s-0.61-.16,1.53,0a3.24,3.24,0,0,0,3.05-1.67l1.28-.23s3.51-.3,3.35-1.52,0.54-1.8,1-4.44,2.75-11.88,2.75-11.88c1.42,0.2,1.12-1.11.2-3s-5.38-5.79-5.38-5.79l1.32,0.1,1.43-2.24,21.62-53.09s20-52.79,21.32-57-0.61-4.57-4-7.72-11.37-5.07-14.11-5.27a3.31,3.31,0,0,0-3.46,2.33L216.9,38.29l-29.62,73.85-10.21,24.44a10,10,0,0,0-.91,3.31c0-.14-0.3-0.65-4.27-0.19-4.57.53-3.35,5.94-2.28,7.54,0.95,1.42,3.69,2.3,4.28,2.48a6.53,6.53,0,0,0-.55,1.33,2.66,2.66,0,0,0,.77,3s-0.54.07-1.29,0.15a1.92,1.92,0,0,0-1.5,2.82,9.3,9.3,0,0,0,2.94,3.25s0.4,0.11-2.13.31-0.92,3.15-.92,3.15-0.1.61-2.63,0.61-6.4,2.33-7.82,2-6.59-1.72-8-2.74-3.85-2.54-3.85-2.54a1.61,1.61,0,0,0-1-1.32,25.41,25.41,0,0,1-4.27-2.54,37.34,37.34,0,0,0-4.56-2.44s-1.63-3.56-2.85-6.09-3.66-6.9-4.87-9.24-0.71-6.19-.71-6.19l1.53,1.52,0.51-3.15a15.08,15.08,0,0,0-2.13-2.44c-1.32-1.22-3.35-3.45-3.35-3.45l-0.61-6.19,4.53-1.61c1.53,1.76,4,2.56,6.7,3.35,0.81,0.24,1.63.48,2.43,0.76s1.39,0.49,2,.71a10.79,10.79,0,0,0,3.21.9,1.62,1.62,0,0,0,1.27-.53c1-1.06,6.41-10.56,7.83-13.24,1.14-2.15,1.18-2.61,1.09-3.56l0.15-.18-0.16-.05c0-.22,0-0.44,0-0.77,0-1.65-.47-8.59-0.56-10a0.34,0.34,0,0,0,.09-0.27c0-.42-0.45-0.51-1.24-0.6-3.8-.46-9.45-0.59-11.64-0.63a17.54,17.54,0,0,1-2.94-4.33c-1.49-3.38-.41-3,0.81-4.37s0.11-2.13.11-2.13A66.46,66.46,0,0,1,150,80.92c4.06-.41.21-2.34-2-4.16s-3.66-8.33-8-15.43-11.47-11.27-18.79-13.4-17.45.81-17.45,0.81c-4.22,1.52-12.9,4.93-18.38,13.2S79.19,82.4,79.49,90.06s2.89,7.92,5.43,7.05a8.25,8.25,0,0,1-.66,2.69c-0.61,1.37,1.06,3.5,1.06,3.5a18.34,18.34,0,0,1-4.72.76c-2.28,0-3.19,2.44-3.19,2.44l2.28,11s0.61,1.21-1.07,1.37-1.06,2.58-.91,3.2-4,5.94-6.55,12.48-3.51,13.4-4,20,1.37,16.9,2,21.17S69.34,186,70.41,190s0.61,7,1.21,10.66a19.62,19.62,0,0,1-.91,9.59c-0.92,2.74-.46,5.79.61,9.14s1.22,7.15,3,9.74,2,1.83.77,4.42-0.46,4-2.28,5.48-2.59,4.87-3.2,7.31-1.68,4-3,8.83,1.37,3.35-1.37,6.55-2.13,3.65-3.19,7.46-0.77,3.2-3.35,7.77-0.3,7.61-1.37,11.88-1.37,12.33-1.37,12.33-0.61-.76-2.13,2.9c-0.5,1.2-1,.5-0.94,1.51C66,321.48,77.38,334.07,93,347.46c3.14-3,6.5-6.43,7.11-7.2,0.84-1.07,1.52-3.12.3-3.88s-4-.31-4-0.31-0.38.18-1.81-1.15a16.53,16.53,0,0,0-2.89-2.12l6.09-5.28s14.67-11.78,16.65-13.35a57.9,57.9,0,0,1,6.15-3.86l0.19-.13c3-2,11.37-5.36,17.26-5.56,6-.2,21.32,4.67,21.32,4.67,2.89,0.41,23.4,5.84,27.41,6.65a115.57,115.57,0,0,0,12.64,1.17,22.49,22.49,0,0,0,1.67,2.59,13.66,13.66,0,0,0,2.69,2.64,9.59,9.59,0,0,0-.36,3.71c0.26,1.83,3.86,4.32,3.86,4.32s1,6.24,1.06,8.73a14.56,14.56,0,0,0,.6,3.15,424.72,424.72,0,0,0,40.38-45.38,10.41,10.41,0,0,0-1-2.08C247.86,294.11,247.18,294.83,247.18,294.83Zm-101-172.14c-0.56.6-1.49,0.28-3.73-.54-0.58-.22-1.24-0.46-2-0.72s-1.64-.52-2.46-0.77l-1.2-.37,3.64-.7c2.74,1.36,5.09,2.71,5.75,3.09h0Zm-4.62-3.33c2-.42,3.61-0.8,4.88-1.15-0.7,1.11-1.36,2.1-1.84,2.77C143.71,120.51,142.68,120,141.53,119.37Zm5,2.75c-0.21-.13-0.67-0.39-1.38-0.79,0.49-.69,1.29-1.92,2.23-3.41a9.53,9.53,0,0,0,2.33-1C148.45,119.13,147.25,121.14,146.57,122.12ZM148,117c0.32-.52.64-1,1-1.6a1.43,1.43,0,0,1,.82.54C149.74,116.27,149.06,116.63,148,117Zm5.89-7.4c-0.68,1.28-2,3.72-3.45,6.15a1.68,1.68,0,0,0-1.09-1,65.8,65.8,0,0,0,3.78-7.1,10.66,10.66,0,0,0,1.8-.74A6.23,6.23,0,0,1,153.87,109.61Zm-0.45-2.77a4.85,4.85,0,0,0,.12-0.48c0.23,0.05.48,0.09,0.71,0.15C154,106.6,153.76,106.71,153.42,106.84Zm0.86-11.2c0.12,1.83.55,8.22,0.55,9.75,0,0.24,0,.39,0,0.57-0.38-.11-0.79-0.2-1.21-0.3,0-2.22-.53-8.71-0.62-9.84C153.58,95.76,154,95.7,154.28,95.64ZM153,95.13c-2.26.26-6.51,0.52-9.42,0.69a4.41,4.41,0,0,0-.21-0.42c-0.17-.25-0.4-0.53-0.62-0.79C145.07,94.64,149.58,94.77,153,95.13Zm-12.85,5.06c0.94-.52,4.7-1,3.77-3.69,4.18-.24,6.79-0.43,8.41-0.59,0.1,1.13.6,7.3,0.62,9.59a68.38,68.38,0,0,0-13.4-.8,0.28,0.28,0,0,0-.09.09c0-.37-0.05-0.84-0.07-1.61C139.32,100.77,139.09,100.77,140.14,100.18ZM138,107.49c-0.58-1.52-.06-0.82.82-1.4a1,1,0,0,0,.62-0.79,0.22,0.22,0,0,0,.09.08h0a69.42,69.42,0,0,1,13.29.82,4.57,4.57,0,0,1-.27.9c-2.33.73-7.09,1.77-16.35,2.76C137.58,109.34,138.55,108.81,138,107.49Zm14.2,0.46c-0.79,1.75-2.15,4.19-3.59,6.61-4.29-1.35-11.46-.05-13.32.32a2.64,2.64,0,0,0,0-1.37c-0.41-1.61-.84-2.29-0.57-2.77C144.34,109.78,149.47,108.75,152.23,108ZM135,115.65a0.05,0.05,0,0,0,0,0c0.09,0,8.57-1.85,13.26-.47-0.44.73-.87,1.44-1.29,2.11-1.81.54-4.19,1.08-6.46,1.55a43.57,43.57,0,0,0-6.09-2.55A3.7,3.7,0,0,0,135,115.65Zm-1,1a0.32,0.32,0,0,0,.16.29,38.08,38.08,0,0,1,5.23,2.14c-1.6.31-3,.58-4,0.75a9.31,9.31,0,0,1-3.59-2.09A8.53,8.53,0,0,0,134,116.66Z"/></svg>